<svg id="about_us" data-name="about us" xmlns="http://www.w3.org/2000/svg" width="17.291" height="17.291" viewBox="0 0 17.291 17.291">
  <path id="Path_319" data-name="Path 319" d="M34.737,549.076a8.643,8.643,0,1,0,3.308.658A8.644,8.644,0,0,0,34.737,549.076Zm0,15.562a6.916,6.916,0,1,1,4.891-2.026A6.917,6.917,0,0,1,34.737,564.638Z" transform="translate(-26.092 -549.076)" fill="#fff"/>
  <path id="Path_320" data-name="Path 320" d="M35.956,563.805a.865.865,0,1,0-.865-.865A.865.865,0,0,0,35.956,563.805Z" transform="translate(-27.311 -550.837)" fill="#fff"/>
  <path id="Path_321" data-name="Path 321" d="M35.956,554.076a.865.865,0,0,0-.865.865v4.323a.865.865,0,0,0,1.729,0v-4.323a.865.865,0,0,0-.865-.865Z" transform="translate(-27.311 -549.753)" fill="#fff"/>
</svg>
