<svg xmlns="http://www.w3.org/2000/svg" width="27.092" height="28.629" viewBox="0 0 27.092 28.629">
  <g id="Group_1704" data-name="Group 1704" transform="translate(1.695 1.5)">
    <path id="Path_58104" data-name="Path 58104" d="M13967,3588.926l-3.113,1.021-.681,2.834-2.04.737-3.4-.227-2.835,1.984.794,2.664,1.417,2.551v2.381l-1.417,1.474v2.551l1.417,3,4.988-.34,1.758,2.721.793,1.587,4.025.85,1.757-3.288,1.474-2.551s2.664.794,3.231,1.021,3.4-2.664,3.4-2.664v-2.324l-2.041-2.778s.341-2.778.624-2.891a14.079,14.079,0,0,0,1.417-2.437l-2.324-3.514-3.515.51-1.87-1.247s-1.361-2.267-1.475-2.607S13967,3588.926,13967,3588.926Z" transform="translate(-13955 -3588.667)" fill="#ff5349"/>
    <circle id="Ellipse_48" data-name="Ellipse 48" cx="3.515" cy="3.515" r="3.515" transform="translate(8.347 9.3)" fill="none" stroke="#fff" stroke-width="3"/>
    <path id="Path_428" data-name="Path 428" d="M26.649,9.405l-.83-1.44a2.551,2.551,0,0,0-3.478-.94h0a2.539,2.539,0,0,1-3.478-.9,2.442,2.442,0,0,1-.342-1.22h0A2.551,2.551,0,0,0,15.97,2.278H14.3A2.539,2.539,0,0,0,11.76,4.829h0A2.551,2.551,0,0,1,9.209,7.343,2.441,2.441,0,0,1,7.989,7h0a2.551,2.551,0,0,0-3.478.94L3.62,9.405a2.551,2.551,0,0,0,.928,3.478h0a2.551,2.551,0,0,1,0,4.418h0a2.539,2.539,0,0,0-.928,3.466h0l.842,1.452a2.551,2.551,0,0,0,3.478.989h0a2.526,2.526,0,0,1,3.466.927,2.441,2.441,0,0,1,.342,1.22h0A2.551,2.551,0,0,0,14.3,27.907H15.97a2.551,2.551,0,0,0,2.551-2.539h0a2.539,2.539,0,0,1,2.551-2.551,2.6,2.6,0,0,1,1.22.342h0a2.551,2.551,0,0,0,3.478-.927h0l.879-1.465a2.539,2.539,0,0,0-.928-3.478h0a2.538,2.538,0,0,1-.927-3.478,2.5,2.5,0,0,1,.927-.928h0a2.551,2.551,0,0,0,.928-3.466h0Z" transform="translate(-3.278 -2.278)" fill="none" stroke="#ff5349" stroke-width="3" fill-rule="evenodd"/>
  </g>
</svg>
