<svg xmlns="http://www.w3.org/2000/svg" width="24" height="24" viewBox="0 0 24 24"><path d="M10.811,17.879a25.58,25.58,0,0,0,7.548,5.379c1.739.779,3.791.168,5.391-1.432l.365-.367-4.395-2.8a3.274,3.274,0,0,1-3.992,1.268,13.231,13.231,0,0,1-4.189-2.78A13.224,13.224,0,0,1,8.76,12.962,3.27,3.27,0,0,1,10.027,8.97L7.23,4.575l-.367.365c-1.6,1.6-2.21,3.652-1.432,5.391A25.58,25.58,0,0,0,10.811,17.879Zm6.533,7.648a28.038,28.038,0,0,1-8.29-5.89,28.054,28.054,0,0,1-5.891-8.29c-1.336-2.983-.116-6.1,1.944-8.164l.365-.367a2.486,2.486,0,0,1,3.856.423L12.845,8.77a1.243,1.243,0,0,1-.492,1.777l-.787.394A.844.844,0,0,0,11.05,12a10.751,10.751,0,0,0,2.247,3.4,10.751,10.751,0,0,0,3.4,2.247.843.843,0,0,0,1.054-.516l.394-.787a1.243,1.243,0,0,1,1.777-.493l5.531,3.519a2.486,2.486,0,0,1,.423,3.856l-.367.365C23.448,25.645,20.328,26.865,17.344,25.527Z" transform="translate(-2.603 -2.088)" fill="#fff" fill-rule="evenodd"/></svg>