<svg xmlns="http://www.w3.org/2000/svg" width="33.958" height="33.958" viewBox="0 0 33.958 33.958">
  <path id="Fillter" d="M5.613,2H32.345a3.668,3.668,0,0,1,3.613,3.722v2.6a3.774,3.774,0,0,1-1.082,2.654L23.831,22.149a1,1,0,0,1-.717.3l-9.248-.029a1,1,0,0,1-.741-.331L2.975,10.927A3.785,3.785,0,0,1,2,8.38V5.724A3.67,3.67,0,0,1,5.613,2Zm8.747,23.472L22.6,25.5a.948.948,0,0,1,.93.96v4.637a1.357,1.357,0,0,1-.769,1.23l-7.482,3.513a1.283,1.283,0,0,1-1.253-.094,1.361,1.361,0,0,1-.6-1.136V26.432A.947.947,0,0,1,14.361,25.472Z" transform="translate(-2 -2)" fill="#fbfbfb" fill-rule="evenodd"/>
</svg>
