<svg xmlns="http://www.w3.org/2000/svg" width="110.286" height="85.897" viewBox="0 0 110.286 85.897">
  <g id="Group_1867" data-name="Group 1867" transform="translate(-109.208 -652.247)">
    <path id="Path_58105" data-name="Path 58105" d="M-46.35-13.113v2.34h-5.382v3.321h4.482V-5.1h-4.482V0h-3.06V-13.113ZM-37.818-2.4a2.8,2.8,0,0,0,1.093-.2,2.212,2.212,0,0,0,.815-.58,2.566,2.566,0,0,0,.508-.922,4.028,4.028,0,0,0,.175-1.238v-7.767h3.042v7.767a6.066,6.066,0,0,1-.391,2.214A4.966,4.966,0,0,1-33.7-1.395,5.056,5.056,0,0,1-35.469-.261a6.452,6.452,0,0,1-2.349.405,6.479,6.479,0,0,1-2.358-.405,5.056,5.056,0,0,1-1.773-1.134,4.914,4.914,0,0,1-1.116-1.737,6.129,6.129,0,0,1-.387-2.214v-7.767h3.042v7.758a4.028,4.028,0,0,0,.175,1.238,2.612,2.612,0,0,0,.508.927,2.189,2.189,0,0,0,.814.585A2.8,2.8,0,0,0-37.818-2.4Zm10.71-10.71a2.582,2.582,0,0,1,.333.018.85.85,0,0,1,.243.067.811.811,0,0,1,.207.14,2.366,2.366,0,0,1,.225.243l6.228,7.875q-.036-.378-.054-.733t-.018-.671v-6.939h2.682V0h-1.584a1.46,1.46,0,0,1-.594-.108,1.271,1.271,0,0,1-.468-.4l-6.183-7.812q.027.342.045.67t.018.617V0H-28.71V-13.113Zm21.942,0v2.34h-5.382v3.321h4.482V-5.1h-4.482V0h-3.06V-13.113ZM4.446-4.986V0H1.4V-4.986l-4.752-8.127H-.666a.99.99,0,0,1,.63.184,1.373,1.373,0,0,1,.378.473L2.2-8.64l.414.846q.189.387.333.765A7.072,7.072,0,0,1,3.267-7.8q.189-.387.405-.837l1.836-3.816a1.126,1.126,0,0,1,.148-.234,1.311,1.311,0,0,1,.216-.212,1.041,1.041,0,0,1,.279-.153.988.988,0,0,1,.347-.058H9.2Zm15.156.6V0H16.56V-13.113h4.626a7.629,7.629,0,0,1,2.381.328,4.568,4.568,0,0,1,1.638.9,3.526,3.526,0,0,1,.95,1.359,4.608,4.608,0,0,1,.306,1.692,4.975,4.975,0,0,1-.315,1.8,3.612,3.612,0,0,1-.963,1.4,4.538,4.538,0,0,1-1.642.913,7.529,7.529,0,0,1-2.354.328Zm0-2.3h1.584a2.232,2.232,0,0,0,1.71-.567,2.251,2.251,0,0,0,.522-1.584,2.369,2.369,0,0,0-.135-.819,1.667,1.667,0,0,0-.41-.634,1.841,1.841,0,0,0-.693-.41,3.065,3.065,0,0,0-.995-.144H19.6ZM32.58-4.851V0H29.538V-13.113H33.8a8.754,8.754,0,0,1,2.425.292,4.554,4.554,0,0,1,1.638.815,3.083,3.083,0,0,1,.923,1.233,4.085,4.085,0,0,1,.288,1.548,4.156,4.156,0,0,1-.171,1.206A3.652,3.652,0,0,1,38.4-6.97a3.935,3.935,0,0,1-.828.859,4.4,4.4,0,0,1-1.129.621,2.859,2.859,0,0,1,.571.378,2.249,2.249,0,0,1,.464.549L40.266,0H37.512a1.168,1.168,0,0,1-1.1-.576L34.236-4.383a.917.917,0,0,0-.337-.36,1.129,1.129,0,0,0-.545-.108Zm0-2.1H33.8a3.13,3.13,0,0,0,1.057-.158,1.911,1.911,0,0,0,.715-.437,1.662,1.662,0,0,0,.4-.652A2.5,2.5,0,0,0,36.108-9a1.689,1.689,0,0,0-.562-1.35,2.618,2.618,0,0,0-1.742-.486H32.58Zm22.914.387A7.047,7.047,0,0,1,55-3.915a6.377,6.377,0,0,1-1.382,2.129A6.335,6.335,0,0,1,51.476-.369,7.3,7.3,0,0,1,48.69.144,7.334,7.334,0,0,1,45.9-.369a6.374,6.374,0,0,1-2.156-1.418,6.343,6.343,0,0,1-1.386-2.129,7.047,7.047,0,0,1-.491-2.646,7.047,7.047,0,0,1,.491-2.646,6.294,6.294,0,0,1,1.386-2.124A6.408,6.408,0,0,1,45.9-12.744a7.334,7.334,0,0,1,2.79-.513,7.244,7.244,0,0,1,2.785.517,6.425,6.425,0,0,1,2.147,1.417A6.328,6.328,0,0,1,55-9.2,7.023,7.023,0,0,1,55.494-6.561Zm-3.114,0a5.67,5.67,0,0,0-.252-1.751A3.707,3.707,0,0,0,51.4-9.63a3.125,3.125,0,0,0-1.156-.828,3.98,3.98,0,0,0-1.557-.288,4.039,4.039,0,0,0-1.57.288,3.117,3.117,0,0,0-1.161.828,3.707,3.707,0,0,0-.724,1.318,5.669,5.669,0,0,0-.252,1.751,5.7,5.7,0,0,0,.252,1.76,3.707,3.707,0,0,0,.724,1.319,3.073,3.073,0,0,0,1.161.824,4.1,4.1,0,0,0,1.57.284,4.036,4.036,0,0,0,1.557-.284A3.08,3.08,0,0,0,51.4-3.483,3.707,3.707,0,0,0,52.128-4.8,5.7,5.7,0,0,0,52.38-6.561Z" transform="translate(164 738)" fill="#fff"/>
    <path id="qrcodescan_120401" d="M40.317,12.819a.451.451,0,0,0-.451.451v4.508a.451.451,0,0,0,.451.451h4.508a.451.451,0,0,0,.451-.451V13.27a.451.451,0,0,0-.451-.451Zm-.451,32.456V43.923a1.352,1.352,0,0,1,2.7,0v1.352h2.7V43.923a1.352,1.352,0,1,1,2.7,0v2.7a1.352,1.352,0,0,1-1.352,1.352H35.809a1.352,1.352,0,0,1-1.352-1.352v-2.7a1.352,1.352,0,0,1,2.7,0v1.352ZM31.752,26.342H33.1a1.352,1.352,0,0,1,0,2.7H27.695a1.352,1.352,0,1,1,0-2.7h1.352v-2.7H24.99a1.352,1.352,0,1,1,0-2.7H33.1a1.352,1.352,0,1,1,0,2.7H31.752Zm13.523,2.7H43.923a1.352,1.352,0,0,1,0-2.7h1.352V24.99a1.352,1.352,0,1,1,2.7,0V30.4a1.352,1.352,0,1,1-2.7,0ZM31.752,34.456H30.4a1.352,1.352,0,0,1,0-2.7h2.7A1.352,1.352,0,0,1,34.456,33.1v5.409A1.352,1.352,0,0,1,33.1,39.866H24.99a1.352,1.352,0,1,1,0-2.7h6.762v-2.7Zm8.565-24.342h4.508A3.155,3.155,0,0,1,47.98,13.27v4.508a3.155,3.155,0,0,1-3.156,3.155H40.317a3.155,3.155,0,0,1-3.156-3.155V13.27A3.155,3.155,0,0,1,40.317,10.114Zm-27.047,0h4.508a3.155,3.155,0,0,1,3.155,3.155v4.508a3.155,3.155,0,0,1-3.155,3.155H13.27a3.155,3.155,0,0,1-3.155-3.155V13.27A3.155,3.155,0,0,1,13.27,10.114Zm0,2.7a.451.451,0,0,0-.451.451v4.508a.451.451,0,0,0,.451.451h4.508a.451.451,0,0,0,.451-.451V13.27a.451.451,0,0,0-.451-.451Zm0,24.342h4.508a3.155,3.155,0,0,1,3.155,3.156v4.508a3.155,3.155,0,0,1-3.155,3.156H13.27a3.155,3.155,0,0,1-3.155-3.156V40.317A3.155,3.155,0,0,1,13.27,37.161Zm0,2.7a.451.451,0,0,0-.451.451v4.508a.451.451,0,0,0,.451.451h4.508a.451.451,0,0,0,.451-.451V40.317a.451.451,0,0,0-.451-.451ZM31.752,12.819H24.99a1.352,1.352,0,1,1,0-2.7H33.1a1.352,1.352,0,0,1,1.352,1.352v5.409a1.352,1.352,0,1,1-2.7,0ZM24.99,18.228a1.352,1.352,0,1,1,0-2.7h2.7a1.352,1.352,0,0,1,0,2.7ZM11.466,34.456a1.352,1.352,0,1,1,0-2.7h5.409a1.352,1.352,0,1,1,0,2.7Zm10.819,0a1.352,1.352,0,1,1,0-2.7h2.7a1.352,1.352,0,1,1,0,2.7Zm4.057,10.819v1.352a1.352,1.352,0,0,1-2.7,0v-2.7A1.352,1.352,0,0,1,24.99,42.57H30.4a1.352,1.352,0,1,1,0,2.7ZM20.933,26.342h1.352a1.352,1.352,0,0,1,0,2.7h-2.7a1.352,1.352,0,0,1-1.352-1.352V26.342H16.876a1.352,1.352,0,1,1,0-2.7h2.7a1.352,1.352,0,0,1,1.352,1.352ZM10.114,24.99a1.352,1.352,0,1,1,2.7,0v2.7a1.352,1.352,0,1,1-2.7,0Zm27.047,0a1.352,1.352,0,1,1,2.7,0V30.4a1.352,1.352,0,1,1-2.7,0ZM42.57,37.161V35.809a1.352,1.352,0,0,1,1.352-1.352h2.7a1.352,1.352,0,0,1,0,2.7H45.275v1.352a1.352,1.352,0,0,1-1.352,1.352H38.513a1.352,1.352,0,0,1-1.352-1.352v-2.7a1.352,1.352,0,1,1,2.7,0v1.352ZM4.7,14.171a1.352,1.352,0,1,1-2.7,0V8.762A6.762,6.762,0,0,1,8.762,2h5.409a1.352,1.352,0,1,1,0,2.7H8.762A4.057,4.057,0,0,0,4.7,8.762ZM43.923,4.7a1.352,1.352,0,0,1,0-2.7h5.409a6.762,6.762,0,0,1,6.762,6.762v5.409a1.352,1.352,0,1,1-2.7,0V8.762A4.057,4.057,0,0,0,49.332,4.7ZM14.171,53.389a1.352,1.352,0,1,1,0,2.7H8.762A6.762,6.762,0,0,1,2,49.332V43.923a1.352,1.352,0,0,1,2.7,0v5.409a4.057,4.057,0,0,0,4.057,4.057Zm39.218-9.466a1.352,1.352,0,0,1,2.7,0v5.409a6.762,6.762,0,0,1-6.762,6.762H43.923a1.352,1.352,0,0,1,0-2.7h5.409a4.057,4.057,0,0,0,4.057-4.057Z" transform="translate(135 650.247)" fill="#fff"/>
  </g>
</svg>
