<svg id="help" xmlns="http://www.w3.org/2000/svg" width="17.291" height="17.291" viewBox="0 0 17.291 17.291">
  <path id="Path_314" data-name="Path 314" d="M34.737,486.854a8.643,8.643,0,1,0,3.308.658A8.644,8.644,0,0,0,34.737,486.854Zm0,15.562a6.916,6.916,0,1,1,4.891-2.026A6.917,6.917,0,0,1,34.737,502.416Z" transform="translate(-26.092 -486.854)" fill="#fff"/>
  <path id="Path_315" data-name="Path 315" d="M35.835,490.854a3.026,3.026,0,0,0-3.026,3.026.865.865,0,0,0,1.729,0,1.3,1.3,0,1,1,1.3,1.3.865.865,0,0,0-.865.865v1.729a.865.865,0,0,0,1.729,0v-1a3.017,3.017,0,0,0-.865-5.914Z" transform="translate(-27.001 -487.396)" fill="#fff"/>
  <path id="Path_316" data-name="Path 316" d="M36.174,502.583a.865.865,0,1,0-.865-.865A.865.865,0,0,0,36.174,502.583Z" transform="translate(-27.34 -488.75)" fill="#fff"/>
</svg>
