<svg width="32" height="32" viewBox="0 0 32 32" fill="none" xmlns="http://www.w3.org/2000/svg">
<path opacity="0.9" d="M16.8 0.799805C11.2 0.799805 6.24 3.8398 3.68 8.4798L0 4.7998V15.1998H10.4L5.92 10.7198C8 6.71981 12 3.9998 16.8 3.9998C23.36 3.9998 28.8 9.43981 28.8 15.9998C28.8 22.5598 23.36 27.9998 16.8 27.9998C11.52 27.9998 7.2 24.6398 5.44 19.9998H2.08C3.84 26.3998 9.76 31.1998 16.8 31.1998C25.28 31.1998 32 24.3198 32 15.9998C32 7.6798 25.12 0.799805 16.8 0.799805ZM14.4 8.79981V16.9598L21.92 21.4398L23.2 19.3598L16.8 15.5198V8.79981H14.4V8.79981Z" fill="white"/>
</svg>
