<?xml version="1.0" encoding="UTF-8"?>
<svg xmlns="http://www.w3.org/2000/svg" xmlns:xlink="http://www.w3.org/1999/xlink" width="21pt" height="23pt" viewBox="0 0 21 23" version="1.1">
<g id="surface1">
<path style=" stroke:none;fill-rule:nonzero;fill:rgb(100%,100%,100%);fill-opacity:1;" d="M 2 0 L 13 0 C 14.105469 0 15 0.894531 15 2 L 15 13 C 15 14.105469 14.105469 15 13 15 L 2 15 C 0.894531 15 0 14.105469 0 13 L 0 2 C 0 0.894531 0.894531 0 2 0 Z M 2 0 "/>
<path style=" stroke:none;fill-rule:nonzero;fill:rgb(100%,32.54902%,28.627451%);fill-opacity:1;" d="M 16.308594 8 L 19 8 C 20.105469 8 21 8.894531 21 10 L 21 21 C 21 22.105469 20.105469 23 19 23 L 8 23 C 6.894531 23 6 22.105469 6 21 L 6 16.078125 Z M 16.308594 8 "/>
<path style=" stroke:none;fill-rule:nonzero;fill:rgb(14.117647%,10.588235%,10.588235%);fill-opacity:1;" d="M 11.492188 5.289062 L 2.28125 5.289062 L 2.28125 3.972656 L 11.492188 3.972656 Z M 11.492188 5.289062 "/>
<path style=" stroke:none;fill-rule:nonzero;fill:rgb(14.117647%,10.588235%,10.588235%);fill-opacity:1;" d="M 7.546875 4.632812 L 6.230469 4.632812 L 6.230469 2 L 7.546875 2 Z M 7.546875 4.632812 "/>
<path style=" stroke:none;fill-rule:nonzero;fill:rgb(14.117647%,10.588235%,10.588235%);fill-opacity:1;" d="M 2.28125 11.867188 L 2.28125 10.554688 C 4.597656 10.597656 6.777344 9.464844 8.070312 7.542969 C 8.734375 6.617188 9.230469 5.582031 9.539062 4.484375 L 10.816406 4.785156 C 10.472656 6.046875 9.902344 7.242188 9.140625 8.304688 C 8.445312 9.292969 7.554688 10.125 6.523438 10.75 C 5.238281 11.5 3.773438 11.890625 2.28125 11.867188 Z M 2.28125 11.867188 "/>
<path style=" stroke:none;fill-rule:nonzero;fill:rgb(14.117647%,10.588235%,10.588235%);fill-opacity:1;" d="M 9.519531 10.554688 C 8.582031 10.550781 7.65625 10.359375 6.796875 9.988281 C 6.070312 9.675781 5.390625 9.261719 4.777344 8.765625 C 4.128906 8.246094 3.550781 7.648438 3.058594 6.980469 L 3.597656 6.605469 L 4.140625 6.230469 C 4.570312 6.804688 5.070312 7.320312 5.632812 7.761719 C 6.71875 8.6875 8.09375 9.210938 9.519531 9.238281 Z M 9.519531 10.554688 "/>
<path style=" stroke:none;fill-rule:nonzero;fill:rgb(100%,100%,100%);fill-opacity:1;" d="M 15.890625 11.867188 L 13.398438 11.867188 L 9.996094 21.078125 L 12.1875 21.078125 L 14.5625 13.625 L 14.644531 13.625 L 17.019531 21.078125 L 19.207031 21.078125 Z M 15.890625 11.867188 "/>
<path style=" stroke:none;fill-rule:nonzero;fill:rgb(100%,100%,100%);fill-opacity:1;" d="M 12.140625 16.476562 L 17.074219 16.476562 L 17.074219 18.449219 L 12.140625 18.449219 Z M 12.140625 16.476562 "/>
</g>
</svg>
