<svg xmlns="http://www.w3.org/2000/svg" width="21" height="23" viewBox="0 0 21 23"><g transform="translate(-5297 -6438)"><rect width="15" height="15" rx="2" transform="translate(5297 6438)" fill="#fff"/><path d="M10.309,0H13a2,2,0,0,1,2,2V13a2,2,0,0,1-2,2H2a2,2,0,0,1-2-2V8.079Z" transform="translate(5303 6446)" fill="#ff5349"/><g transform="translate(5299.283 6440)"><path d="M9.211-.684H0V-2H9.211Z" transform="translate(0 3.974)" fill="#241b1b"/><path d="M-.684,2.632H-2V0H-.684Z" transform="translate(5.948)" fill="#241b1b"/><path d="M13,25.927V24.611A6.811,6.811,0,0,0,18.788,21.6a9.768,9.768,0,0,0,1.467-3.058l1.28.3a11.036,11.036,0,0,1-1.679,3.522,8.731,8.731,0,0,1-2.615,2.443A8.174,8.174,0,0,1,13,25.927Z" transform="translate(-13 -16.058)" fill="#241b1b"/><path d="M21.817,28.183a6.937,6.937,0,0,1-2.723-.566,8.619,8.619,0,0,1-2.019-1.223,9.387,9.387,0,0,1-1.721-1.784l.542-.374.541-.375a8.239,8.239,0,0,0,1.493,1.531,6.19,6.19,0,0,0,3.888,1.476Z" transform="translate(-14.58 -19.63)" fill="#241b1b"/></g><g transform="translate(-0.789 0.33)"><g transform="translate(5307.789 6449.539)"><path d="M44.748,40H42.255l-3.4,9.211h2.188l2.376-7.454H43.5l2.376,7.454h2.188Z" transform="translate(-38.857 -40)" fill="#fff"/></g><g transform="translate(5309.928 6454.146)"><rect width="4.934" height="1.974" fill="#fff"/></g></g></g></svg>