<svg xmlns="http://www.w3.org/2000/svg" width="44.74" height="44.74" viewBox="0 0 44.74 44.74">
  <g id="language" transform="translate(-24.31 -24.31)">
    <path id="Path_421" data-name="Path 421" d="M44.5,62.935H29.565A5.261,5.261,0,0,1,24.31,57.68V25.788a1.478,1.478,0,0,1,1.478-1.478h26.1a1.478,1.478,0,0,1,1.448,1.773L45.95,61.753A1.478,1.478,0,0,1,44.5,62.935ZM27.265,27.265V57.68a2.3,2.3,0,0,0,2.3,2.3H43.3l6.777-32.714Z" transform="translate(0 0)" fill="#fff"/>
    <path id="Path_422" data-name="Path 422" d="M99.758,83.625H71.477a1.478,1.478,0,0,1-1.448-1.773L71.3,75.737a1.478,1.478,0,0,1,2.9.591l-.887,4.336H98.295V50.255a2.3,2.3,0,0,0-2.314-2.3H82.811a1.478,1.478,0,1,1,0-2.955h13.17a5.261,5.261,0,0,1,5.255,5.255V82.147A1.478,1.478,0,0,1,99.758,83.625Z" transform="translate(-32.186 -14.575)" fill="#fff"/>
    <path id="Path_423" data-name="Path 423" d="M46.478,58.9h0A1.478,1.478,0,0,1,45,57.42V50.182a5.172,5.172,0,0,1,10.344,0V57.42a1.478,1.478,0,0,1-2.955,0V50.176a2.217,2.217,0,0,0-4.433,0V57.42A1.478,1.478,0,0,1,46.478,58.9Z" transform="translate(-14.575 -14.582)" fill="#fff"/>
    <path id="Path_424" data-name="Path 424" d="M53.866,68.955H46.478a1.478,1.478,0,0,1,0-2.955h7.389a1.478,1.478,0,0,1,0,2.955Z" transform="translate(-14.575 -29.369)" fill="#fff"/>
    <path id="Path_425" data-name="Path 425" d="M116.681,126.963a1.478,1.478,0,0,1-1.046-2.524l6.283-6.283h-5.237a1.478,1.478,0,1,1,0-2.955h8.8a1.478,1.478,0,0,1,1.046,2.524l-8.807,8.8A1.478,1.478,0,0,1,116.681,126.963Z" transform="translate(-64.028 -64.028)" fill="#fff"/>
    <path id="Path_426" data-name="Path 426" d="M135.985,137.463a1.478,1.478,0,0,1-1.046-.434l-4.4-4.4a1.478,1.478,0,1,1,2.09-2.09l4.4,4.4a1.478,1.478,0,0,1-1.046,2.524Z" transform="translate(-74.528 -74.528)" fill="#fff"/>
    <path id="Path_427" data-name="Path 427" d="M128.778,103.265h-4.3a1.478,1.478,0,0,1,0-2.955h4.315a1.478,1.478,0,0,1,0,2.955Z" transform="translate(-69.523 -53.538)" fill="#fff"/>
  </g>
</svg>
