<svg width="32" height="32" viewBox="0 0 32 32" fill="none" xmlns="http://www.w3.org/2000/svg">
<path fill-rule="evenodd" clip-rule="evenodd" d="M27.3703 10.127L26.5403 8.687C26.2031 8.10183 25.6476 7.67427 24.9956 7.49806C24.3436 7.32185 23.6484 7.41137 23.0623 7.747V7.747C22.7749 7.91645 22.4569 8.02759 22.1265 8.07406C21.7961 8.12053 21.4598 8.10143 21.1367 8.01785C20.8137 7.93426 20.5104 7.78783 20.244 7.58693C19.9776 7.38603 19.7534 7.13459 19.5843 6.847C19.3649 6.47751 19.247 6.05667 19.2423 5.627C19.2525 5.28566 19.194 4.94575 19.0704 4.62742C18.9467 4.30909 18.7604 4.01883 18.5225 3.77384C18.2846 3.52885 17.9999 3.33412 17.6854 3.20119C17.3708 3.06826 17.0328 2.99985 16.6913 3H15.0213C14.6868 2.99986 14.3555 3.06584 14.0466 3.19412C13.7376 3.32241 13.4571 3.51049 13.221 3.74754C12.985 3.98459 12.7981 4.26595 12.6712 4.57545C12.5442 4.88495 12.4797 5.21648 12.4813 5.551C12.4716 6.22113 12.1985 6.86053 11.7212 7.33096C11.2438 7.80139 10.6005 8.06507 9.93028 8.065C9.50051 8.06007 9.07966 7.94175 8.71028 7.722V7.722C8.1242 7.38637 7.42895 7.29685 6.77697 7.47306C6.12499 7.64927 5.56949 8.07683 5.23228 8.662L4.34128 10.127C4.00465 10.7116 3.9133 11.4058 4.08721 12.0576C4.26113 12.7094 4.68615 13.2658 5.26928 13.605V13.605C5.65697 13.8289 5.9789 14.1509 6.20272 14.5387C6.42655 14.9265 6.54438 15.3663 6.54438 15.814C6.54438 16.2617 6.42655 16.7015 6.20272 17.0893C5.9789 17.4771 5.65697 17.7991 5.26928 18.023C4.68697 18.3599 4.26218 18.9141 4.08818 19.564C3.91419 20.2139 4.00522 20.9062 4.34128 21.489V21.489L5.18328 22.941C5.34614 23.2349 5.56546 23.4937 5.82862 23.7025C6.09179 23.9114 6.39362 24.0662 6.71679 24.1581C7.03996 24.25 7.3781 24.2772 7.71179 24.238C8.04548 24.1989 8.36816 24.0942 8.66128 23.93V23.93C8.94935 23.7618 9.26788 23.6524 9.59848 23.608C9.92908 23.5635 10.2652 23.5851 10.5874 23.6712C10.9097 23.7574 11.2117 23.9066 11.476 24.1101C11.7403 24.3136 11.9616 24.5675 12.1273 24.857C12.3467 25.2265 12.4646 25.6473 12.4693 26.077C12.4691 26.4122 12.5351 26.7441 12.6633 27.0538C12.7915 27.3634 12.9794 27.6448 13.2164 27.8818C13.4535 28.1188 13.7348 28.3068 14.0445 28.435C14.3542 28.5632 14.6861 28.6291 15.0213 28.629H16.6913C17.3658 28.629 18.0128 28.3619 18.4909 27.8861C18.9689 27.4103 19.2391 26.7645 19.2423 26.09V26.09C19.2407 25.7546 19.3056 25.4221 19.4332 25.1119C19.5609 24.8017 19.7487 24.5198 19.9859 24.2826C20.2231 24.0454 20.505 23.8576 20.8152 23.7299C21.1254 23.6023 21.4578 23.5374 21.7933 23.539C22.2219 23.5507 22.641 23.6681 23.0133 23.881C23.5978 24.2177 24.2919 24.3092 24.9436 24.1355C25.5954 23.9618 26.1519 23.537 26.4913 22.954V22.954L27.3703 21.489C27.5386 21.1999 27.6481 20.8804 27.6925 20.5489C27.7369 20.2174 27.7154 19.8803 27.6292 19.5571C27.5429 19.2339 27.3937 18.931 27.19 18.6656C26.9863 18.4003 26.7322 18.1778 26.4423 18.011V18.011C26.1523 17.8442 25.8982 17.6217 25.6946 17.3563C25.4909 17.091 25.3417 16.788 25.2556 16.4648C25.1694 16.1415 25.148 15.8045 25.1926 15.473C25.2372 15.1414 25.3468 14.822 25.5153 14.533C25.7362 14.1467 26.0562 13.8263 26.4423 13.605V13.605C27.0222 13.2659 27.4449 12.7117 27.6186 12.0627C27.7924 11.4138 27.7031 10.7225 27.3703 10.139V10.139V10.127Z" stroke="#CDCAC8" stroke-width="2.5"/>
<path d="M15.8623 19.3298C17.8036 19.3298 19.3773 17.7561 19.3773 15.8148C19.3773 13.8735 17.8036 12.2998 15.8623 12.2998C13.921 12.2998 12.3473 13.8735 12.3473 15.8148C12.3473 17.7561 13.921 19.3298 15.8623 19.3298Z" stroke="#CDCAC8" stroke-width="3"/>
</svg>
