<svg width="32" height="32" viewBox="0 0 32 32" fill="none" xmlns="http://www.w3.org/2000/svg">
<path d="M16.0693 3.25879L12.9561 4.27979L12.2754 7.11377L10.2354 7.85083L6.83496 7.62378L4 9.60767L4.79395 12.2717L6.21094 14.8228V17.2039L4.79395 18.6777V21.2288L6.21094 24.2288L11.1992 23.8887L12.957 26.6099L13.75 28.1968L17.7754 29.0469L19.5322 25.7588L21.0059 23.2078C21.0059 23.2078 23.6703 24.0018 24.2373 24.2288C24.8043 24.4558 27.6377 21.5647 27.6377 21.5647V19.2407L25.5967 16.4626C25.5967 16.4626 25.9377 13.6848 26.2207 13.5718C26.7734 12.8089 27.2481 11.9925 27.6377 11.1348L25.3135 7.62085L21.7979 8.13086L19.9287 6.88379C19.9287 6.88379 18.5671 4.61686 18.4531 4.27686C18.3391 3.93686 16.0693 3.25879 16.0693 3.25879Z" fill="#FF5349"/>
<path d="M15.9313 19.3298C17.8726 19.3298 19.4463 17.7561 19.4463 15.8148C19.4463 13.8735 17.8726 12.2998 15.9313 12.2998C13.99 12.2998 12.4163 13.8735 12.4163 15.8148C12.4163 17.7561 13.99 19.3298 15.9313 19.3298Z" stroke="white" stroke-width="3"/>
<path fill-rule="evenodd" clip-rule="evenodd" d="M27.4403 10.127L26.6103 8.687C26.2731 8.10183 25.7176 7.67427 25.0657 7.49806C24.4137 7.32185 23.7184 7.41137 23.1323 7.747V7.747C22.8449 7.91645 22.5269 8.02759 22.1965 8.07406C21.8661 8.12053 21.5298 8.10143 21.2068 8.01785C20.8838 7.93426 20.5804 7.78783 20.3141 7.58693C20.0477 7.38603 19.8235 7.13459 19.6543 6.847C19.435 6.47751 19.317 6.05667 19.3123 5.627C19.3225 5.28566 19.2641 4.94575 19.1404 4.62742C19.0168 4.30909 18.8305 4.01883 18.5926 3.77384C18.3547 3.52885 18.07 3.33412 17.7555 3.20119C17.4409 3.06826 17.1028 2.99985 16.7613 3H15.0913C14.7568 2.99986 14.4256 3.06584 14.1166 3.19412C13.8077 3.32241 13.5271 3.51049 13.2911 3.74754C13.0551 3.98459 12.8682 4.26595 12.7413 4.57545C12.6143 4.88495 12.5498 5.21648 12.5513 5.551C12.5416 6.22113 12.2686 6.86053 11.7912 7.33096C11.3139 7.80139 10.6706 8.06507 10.0003 8.065C9.57057 8.06007 9.14972 7.94175 8.78035 7.722V7.722C8.19427 7.38637 7.49902 7.29685 6.84704 7.47306C6.19506 7.64927 5.63956 8.07683 5.30235 8.662L4.41135 10.127C4.07472 10.7116 3.98336 11.4058 4.15728 12.0576C4.3312 12.7094 4.75622 13.2658 5.33935 13.605V13.605C5.72704 13.8289 6.04897 14.1509 6.27279 14.5387C6.49662 14.9265 6.61445 15.3663 6.61445 15.814C6.61445 16.2617 6.49662 16.7015 6.27279 17.0893C6.04897 17.4771 5.72704 17.7991 5.33935 18.023C4.75704 18.3599 4.33225 18.9141 4.15825 19.564C3.98426 20.2139 4.07528 20.9062 4.41135 21.489V21.489L5.25335 22.941C5.41621 23.2349 5.63552 23.4937 5.89869 23.7025C6.16185 23.9114 6.46369 24.0662 6.78686 24.1581C7.11003 24.25 7.44817 24.2772 7.78186 24.238C8.11555 24.1989 8.43822 24.0942 8.73135 23.93V23.93C9.01942 23.7618 9.33795 23.6524 9.66855 23.608C9.99915 23.5635 10.3353 23.5851 10.6575 23.6712C10.9798 23.7574 11.2817 23.9066 11.546 24.1101C11.8103 24.3136 12.0317 24.5675 12.1973 24.857C12.4167 25.2265 12.5347 25.6473 12.5393 26.077C12.5392 26.4122 12.6051 26.7441 12.7333 27.0538C12.8615 27.3634 13.0495 27.6448 13.2865 27.8818C13.5235 28.1188 13.8049 28.3068 14.1146 28.435C14.4243 28.5632 14.7562 28.6291 15.0913 28.629H16.7613C17.4358 28.629 18.0829 28.3619 18.5609 27.8861C19.039 27.4103 19.3092 26.7645 19.3123 26.09V26.09C19.3108 25.7546 19.3757 25.4221 19.5033 25.1119C19.6309 24.8017 19.8188 24.5198 20.056 24.2826C20.2932 24.0454 20.575 23.8576 20.8852 23.7299C21.1955 23.6023 21.5279 23.5374 21.8633 23.539C22.292 23.5507 22.7111 23.6681 23.0833 23.881C23.6678 24.2177 24.3619 24.3092 25.0137 24.1355C25.6655 23.9618 26.222 23.537 26.5613 22.954V22.954L27.4403 21.489C27.6086 21.1999 27.7181 20.8804 27.7626 20.5489C27.807 20.2174 27.7855 19.8803 27.6992 19.5571C27.613 19.2339 27.4637 18.931 27.2601 18.6656C27.0564 18.4003 26.8023 18.1778 26.5123 18.011V18.011C26.2224 17.8442 25.9683 17.6217 25.7646 17.3563C25.561 17.091 25.4118 16.788 25.3256 16.4648C25.2395 16.1415 25.2181 15.8045 25.2627 15.473C25.3072 15.1414 25.4169 14.822 25.5853 14.533C25.8062 14.1467 26.1263 13.8263 26.5123 13.605V13.605C27.0922 13.2659 27.5149 12.7117 27.6887 12.0627C27.8624 11.4138 27.7732 10.7225 27.4403 10.139V10.139V10.127Z" stroke="#FF5349" stroke-width="2.5"/>
</svg>
