<svg xmlns="http://www.w3.org/2000/svg" width="178" height="178" viewBox="0 0 178 178">
  <path id="qrcodescan_120401" d="M128.084,37.6a1.483,1.483,0,0,0-1.484,1.483V53.917a1.483,1.483,0,0,0,1.484,1.483h14.833a1.483,1.483,0,0,0,1.484-1.483V39.083a1.483,1.483,0,0,0-1.484-1.483ZM126.6,144.4v-4.45a4.45,4.45,0,0,1,8.9,0v4.45h8.9v-4.45a4.45,4.45,0,1,1,8.9,0v8.9a4.45,4.45,0,0,1-4.45,4.45h-35.6a4.45,4.45,0,0,1-4.45-4.45v-8.9a4.45,4.45,0,1,1,8.9,0v4.45ZM99.9,82.1h4.45a4.45,4.45,0,1,1,0,8.9H86.55a4.45,4.45,0,1,1,0-8.9H91V73.2H77.65a4.45,4.45,0,1,1,0-8.9h26.7a4.45,4.45,0,1,1,0,8.9H99.9ZM144.4,91h-4.45a4.45,4.45,0,0,1,0-8.9h4.45V77.65a4.45,4.45,0,1,1,8.9,0v17.8a4.45,4.45,0,1,1-8.9,0ZM99.9,108.8H95.45a4.45,4.45,0,0,1,0-8.9h8.9a4.45,4.45,0,0,1,4.45,4.45v17.8a4.45,4.45,0,0,1-4.45,4.45H77.65a4.45,4.45,0,1,1,0-8.9H99.9v-8.9Zm28.184-80.1h14.833A10.383,10.383,0,0,1,153.3,39.083V53.917A10.383,10.383,0,0,1,142.916,64.3H128.084A10.383,10.383,0,0,1,117.7,53.917V39.083A10.383,10.383,0,0,1,128.084,28.7Zm-89,0H53.917A10.383,10.383,0,0,1,64.3,39.083V53.917A10.383,10.383,0,0,1,53.917,64.3H39.083A10.383,10.383,0,0,1,28.7,53.917V39.083A10.383,10.383,0,0,1,39.083,28.7Zm0,8.9A1.483,1.483,0,0,0,37.6,39.083V53.917A1.483,1.483,0,0,0,39.083,55.4H53.917A1.483,1.483,0,0,0,55.4,53.917V39.083A1.483,1.483,0,0,0,53.917,37.6Zm0,80.1H53.917A10.383,10.383,0,0,1,64.3,128.084v14.833A10.383,10.383,0,0,1,53.917,153.3H39.083A10.383,10.383,0,0,1,28.7,142.916V128.084A10.383,10.383,0,0,1,39.083,117.7Zm0,8.9a1.483,1.483,0,0,0-1.483,1.484v14.833a1.483,1.483,0,0,0,1.483,1.484H53.917a1.483,1.483,0,0,0,1.483-1.484V128.084a1.483,1.483,0,0,0-1.483-1.484ZM99.9,37.6H77.65a4.45,4.45,0,1,1,0-8.9h26.7a4.45,4.45,0,0,1,4.45,4.45v17.8a4.45,4.45,0,1,1-8.9,0ZM77.65,55.4a4.45,4.45,0,1,1,0-8.9h8.9a4.45,4.45,0,0,1,0,8.9Zm-44.5,53.4a4.45,4.45,0,1,1,0-8.9h17.8a4.45,4.45,0,1,1,0,8.9Zm35.6,0a4.45,4.45,0,1,1,0-8.9h8.9a4.45,4.45,0,1,1,0,8.9ZM82.1,144.4v4.45a4.45,4.45,0,0,1-8.9,0v-8.9a4.45,4.45,0,0,1,4.45-4.45h17.8a4.45,4.45,0,1,1,0,8.9ZM64.3,82.1h4.45a4.45,4.45,0,0,1,0,8.9h-8.9a4.45,4.45,0,0,1-4.45-4.45V82.1H50.95a4.45,4.45,0,1,1,0-8.9h8.9a4.45,4.45,0,0,1,4.45,4.45ZM28.7,77.65a4.45,4.45,0,1,1,8.9,0v8.9a4.45,4.45,0,0,1-8.9,0Zm89,0a4.45,4.45,0,1,1,8.9,0v17.8a4.45,4.45,0,1,1-8.9,0Zm17.8,40.05v-4.45a4.45,4.45,0,0,1,4.45-4.45h8.9a4.45,4.45,0,0,1,0,8.9H144.4v4.45a4.45,4.45,0,0,1-4.45,4.45h-17.8a4.45,4.45,0,0,1-4.45-4.45v-8.9a4.45,4.45,0,1,1,8.9,0v4.45ZM10.9,42.05a4.45,4.45,0,1,1-8.9,0V24.25A22.25,22.25,0,0,1,24.25,2h17.8a4.45,4.45,0,1,1,0,8.9H24.25A13.35,13.35,0,0,0,10.9,24.25ZM139.95,10.9a4.45,4.45,0,0,1,0-8.9h17.8A22.25,22.25,0,0,1,180,24.25v17.8a4.45,4.45,0,1,1-8.9,0V24.25A13.35,13.35,0,0,0,157.75,10.9ZM42.05,171.1a4.45,4.45,0,1,1,0,8.9H24.25A22.25,22.25,0,0,1,2,157.75v-17.8a4.45,4.45,0,0,1,8.9,0v17.8A13.35,13.35,0,0,0,24.25,171.1ZM171.1,139.95a4.45,4.45,0,1,1,8.9,0v17.8A22.25,22.25,0,0,1,157.75,180h-17.8a4.45,4.45,0,1,1,0-8.9h17.8a13.35,13.35,0,0,0,13.35-13.35Z" transform="translate(-2 -2)" fill="#fff"/>
</svg>
