<svg xmlns="http://www.w3.org/2000/svg" xmlns:xlink="http://www.w3.org/1999/xlink" width="92" height="92" viewBox="0 0 92 92">
  <defs>
    <clipPath id="clip-path">
      <rect id="Rectangle_225" data-name="Rectangle 225" width="92" height="92" transform="translate(13777.551 2342.551)" fill="#ff5349"/>
    </clipPath>
  </defs>
  <g id="Settings" transform="translate(-13777.551 -2342.551)" clip-path="url(#clip-path)">
    <g id="Group_1847" data-name="Group 1847" transform="translate(13789.388 2350.592)">
      <path id="Path_58098" data-name="Path 58098" d="M69.814,22.569l-2.363-4.1a7.262,7.262,0,0,0-9.9-2.675h0a7.227,7.227,0,0,1-9.9-2.571,6.952,6.952,0,0,1-.973-3.474h0a7.262,7.262,0,0,0-7.262-7.47h-4.76A7.227,7.227,0,0,0,27.424,9.54h0A7.262,7.262,0,0,1,20.163,16.7a6.949,6.949,0,0,1-3.475-.973h0a7.262,7.262,0,0,0-9.9,2.675L4.249,22.569a7.261,7.261,0,0,0,2.641,9.9h0a7.262,7.262,0,0,1,0,12.578h0a7.227,7.227,0,0,0-2.641,9.868h0l2.4,4.134a7.262,7.262,0,0,0,9.9,2.815h0a7.192,7.192,0,0,1,9.868,2.64,6.949,6.949,0,0,1,.973,3.474h0a7.262,7.262,0,0,0,7.262,7.262h4.76a7.261,7.261,0,0,0,7.262-7.227h0a7.227,7.227,0,0,1,7.262-7.262,7.4,7.4,0,0,1,3.474.973h0a7.261,7.261,0,0,0,9.9-2.64h0l2.5-4.169a7.227,7.227,0,0,0-2.641-9.9h0a7.227,7.227,0,0,1-2.64-9.9,7.122,7.122,0,0,1,2.64-2.641h0A7.262,7.262,0,0,0,69.814,22.6h0Z" transform="translate(-3.279 -2.278)" fill="#ff5349" stroke="#ff5349" stroke-width="3" fill-rule="evenodd"/>
      <circle id="Ellipse_70" data-name="Ellipse 70" cx="10.007" cy="10.007" r="10.007" transform="translate(23.763 26.476)" fill="#fff"/>
    </g>
  </g>
</svg>
