<svg xmlns="http://www.w3.org/2000/svg" width="32.843" height="19.608" viewBox="0 0 32.843 19.608">
  <g id="stripe" transform="translate(-2)">
    <path id="Path_57876" data-name="Path 57876" d="M5.09,0H31.752a3.1,3.1,0,0,1,3.091,3.09V16.517a3.1,3.1,0,0,1-3.09,3.09H5.09A3.1,3.1,0,0,1,2,16.517V3.09A3.1,3.1,0,0,1,5.091,0ZM31.752,1.065H5.09A2.033,2.033,0,0,0,3.065,3.091V16.518A2.033,2.033,0,0,0,5.09,18.543H31.752a2.033,2.033,0,0,0,2.025-2.025V3.091a2.033,2.033,0,0,0-2.025-2.025Z" fill="#fff"/>
    <path id="Path_57877" data-name="Path 57877" d="M62777.469,56270.406c0-1.461-.7-2.609-2.047-2.609-1.359,0-2.172,1.148-2.172,2.594a2.266,2.266,0,0,0,2.352,2.578,3.2,3.2,0,0,0,1.578-.367v-1.141a3.031,3.031,0,0,1-1.4.313c-.547,0-1.039-.191-1.1-.859h2.781c0-.078.008-.375.008-.508Zm-19.031-1.062c0-.227.18-.312.484-.312a3.145,3.145,0,0,1,1.406.367v-1.336a3.739,3.739,0,0,0-1.406-.266c-1.156,0-1.922.609-1.922,1.613,0,1.57,2.156,1.316,2.156,2,0,.262-.227.344-.547.344a3.52,3.52,0,0,1-1.547-.453v1.355a4,4,0,0,0,1.547.324c1.188,0,2-.586,2-1.605-.008-1.7-2.172-1.395-2.172-2.027Zm3.844-2.68-1.391.3v4.555a1.423,1.423,0,0,0,1.469,1.461,2.224,2.224,0,0,0,1-.187v-1.156c-.187.074-1.086.336-1.086-.508v-2.016h1.086v-1.211h-1.086l.008-1.234Zm2.844,1.652-.094-.418h-1.227v4.977h1.422v-3.375a1.012,1.012,0,0,1,1.086-.3v-1.3A.966.966,0,0,0,62765.125,56268.316Zm1.531,4.559h1.43v-4.977h-1.43Zm0-5.41,1.43-.309V56266l-1.43.3v1.16Zm4.4.332a1.605,1.605,0,0,0-1.117.445l-.078-.352h-1.25v6.633l1.422-.3.008-1.613a1.6,1.6,0,0,0,1.008.359c1.016,0,1.945-.82,1.945-2.621-.008-1.648-.945-2.551-1.937-2.551Zm-.344,3.922a.843.843,0,0,1-.672-.266l-.008-2.109a.84.84,0,0,1,.68-.281c.516,0,.875.578.875,1.328S62771.234,56271.719,62770.711,56271.719Zm3.953-1.852c0-.645.391-.914.75-.914s.719.27.719.914Z" transform="translate(-62748.816 -56260.457)" fill="#fff" fill-rule="evenodd"/>
  </g>
</svg>
