<svg xmlns="http://www.w3.org/2000/svg" width="25" height="24" viewBox="0 0 25 24"><g transform="translate(-5327.5 -6585)"><g transform="translate(5326 6590)"><path d="M4.258,0H23.742A2.264,2.264,0,0,1,26,2.258V12.07a2.264,2.264,0,0,1-2.258,2.258H4.258A2.264,2.264,0,0,1,2,12.07V2.258A2.264,2.264,0,0,1,4.258,0ZM23.742.778H4.258a1.486,1.486,0,0,0-1.48,1.48V12.07a1.486,1.486,0,0,0,1.48,1.48H23.742a1.486,1.486,0,0,0,1.48-1.48V2.258a1.486,1.486,0,0,0-1.48-1.48Z" fill="#fff"/><path d="M4.258-.5H23.742A2.764,2.764,0,0,1,26.5,2.258V12.07a2.764,2.764,0,0,1-2.758,2.758H4.258A2.764,2.764,0,0,1,1.5,12.07V2.258A2.764,2.764,0,0,1,4.258-.5ZM23.742,13.05a.986.986,0,0,0,.98-.98V2.258a.986.986,0,0,0-.98-.98H4.258a.986.986,0,0,0-.98.98V12.07a.986.986,0,0,0,.98.98Z" fill="#fff"/><path d="M62771.961,56269.219c0-1.066-.516-1.906-1.5-1.906a1.684,1.684,0,0,0-1.586,1.9,1.658,1.658,0,0,0,1.719,1.883,2.36,2.36,0,0,0,1.156-.27v-.832a2.275,2.275,0,0,1-1.023.227c-.4,0-.758-.141-.8-.629h2.031c0-.055.008-.273.008-.371Zm-13.906-.773c0-.168.125-.23.352-.23a2.275,2.275,0,0,1,1.023.27v-.977a2.69,2.69,0,0,0-1.023-.2c-.844,0-1.406.445-1.406,1.18,0,1.148,1.578.961,1.578,1.461,0,.191-.164.25-.4.25a2.59,2.59,0,0,1-1.133-.332v.992a2.958,2.958,0,0,0,1.133.234c.867,0,1.461-.426,1.461-1.172-.008-1.238-1.586-1.02-1.586-1.48Zm2.8-1.961-1.016.219v3.328a1.04,1.04,0,0,0,1.07,1.066,1.652,1.652,0,0,0,.734-.137v-.844c-.141.055-.8.246-.8-.371v-1.473h.8v-.887h-.8l.008-.9Zm2.078,1.211-.07-.309h-.891v3.637h1.039v-2.465a.737.737,0,0,1,.789-.219v-.953A.709.709,0,0,0,62762.938,56267.7Zm1.117,3.328h1.047v-3.637h-1.047Zm0-3.953,1.047-.227V56266l-1.047.223v.848Zm3.219.242a1.183,1.183,0,0,0-.82.328l-.055-.258h-.914v4.848l1.039-.223.008-1.176a1.175,1.175,0,0,0,.734.262c.742,0,1.422-.6,1.422-1.914-.008-1.207-.687-1.867-1.414-1.867Zm-.25,2.867a.6.6,0,0,1-.492-.2l-.008-1.539a.613.613,0,0,1,.5-.207c.375,0,.633.422.633.973S62767.406,56270.18,62767.023,56270.18Zm2.883-1.352c0-.473.289-.668.555-.668.25,0,.523.2.523.668Z" transform="translate(-62750.48 -56261.949)" fill="#fff" fill-rule="evenodd"/></g><rect width="24" height="24" transform="translate(5328 6585)" fill="none"/></g></svg>