<?xml version="1.0" standalone="no"?>
<!DOCTYPE svg PUBLIC "-//W3C//DTD SVG 20010904//EN"
 "http://www.w3.org/TR/2001/REC-SVG-20010904/DTD/svg10.dtd">
<svg version="1.0" xmlns="http://www.w3.org/2000/svg"
 width="512.000000pt" height="512.000000pt" viewBox="0 0 512.000000 512.000000"
 preserveAspectRatio="xMidYMid meet">

<g transform="translate(0.000000,512.000000) scale(0.100000,-0.100000)"
fill="#000000" stroke="none">
<path d="M2156 4944 c-58 -21 -98 -56 -141 -121 -21 -32 -61 -77 -90 -100
l-52 -43 -470 0 c-515 0 -523 -1 -595 -60 -58 -48 -88 -119 -88 -210 0 -87 14
-110 67 -110 45 0 66 30 71 103 3 34 12 73 20 86 33 49 51 51 488 51 l406 0
-7 -22 c-4 -13 -9 -52 -12 -88 -5 -75 14 -116 69 -150 32 -19 52 -20 696 -20
718 0 689 -2 742 55 22 24 25 35 25 103 0 42 -4 87 -8 100 l-8 22 406 0 c439
0 454 -2 488 -53 16 -25 17 -132 17 -1570 0 -1066 3 -1553 11 -1575 23 -68
110 -62 129 9 7 25 10 559 8 1581 l-3 1543 -28 57 c-16 32 -45 71 -65 88 -72
59 -80 60 -593 60 l-467 0 -51 40 c-27 22 -68 67 -91 99 -46 69 -88 104 -149
126 -62 21 -666 21 -725 -1z m694 -139 c16 -8 47 -42 69 -74 23 -33 73 -86
114 -120 81 -67 117 -121 117 -175 l0 -36 -630 0 -630 0 0 29 c0 54 28 97 119
180 49 45 102 102 116 127 49 84 48 84 393 84 251 0 308 -3 332 -15z"/>
<path d="M2192 4657 c-30 -32 -28 -71 4 -96 26 -20 38 -21 324 -21 286 0 298
1 324 21 33 26 35 70 4 99 -21 19 -34 20 -328 20 l-307 0 -21 -23z"/>
<path d="M770 4132 c-8 -2 -23 -11 -32 -20 -17 -14 -18 -116 -18 -1876 0
-1300 3 -1873 11 -1900 15 -53 89 -131 147 -153 45 -17 131 -18 1647 -18
l1600 0 45 21 c58 27 108 76 134 134 20 43 21 62 21 406 0 342 -1 363 -19 383
-25 28 -77 28 -102 0 -17 -18 -19 -40 -22 -180 l-3 -159 -1444 0 -1444 0 -21
-27 c-25 -32 -20 -69 12 -95 19 -17 103 -18 1459 -18 l1439 0 0 -120 c0 -85
-4 -129 -14 -148 -31 -61 76 -57 -1646 -57 -1292 0 -1581 2 -1602 13 -48 26
-58 59 -58 191 l0 121 90 0 c83 0 93 2 115 25 31 30 32 65 2 93 -20 19 -35 22
-115 22 l-92 0 0 1644 c0 1143 -3 1652 -11 1674 -11 31 -50 53 -79 44z"/>
<path d="M1450 3960 c-25 -25 -26 -61 -1 -91 l19 -24 1200 0 c1166 0 1200 1
1221 19 27 24 27 70 1 96 -20 20 -33 20 -1220 20 -1187 0 -1200 0 -1220 -20z"/>
<path d="M1180 3593 c-51 -19 -66 -77 -30 -113 20 -20 33 -20 1370 -20 1337 0
1350 0 1370 20 26 26 26 72 -1 96 -21 18 -59 19 -1358 21 -735 1 -1343 -1
-1351 -4z"/>
<path d="M1156 3189 c-32 -25 -35 -70 -6 -99 20 -20 33 -20 1370 -20 1337 0
1350 0 1370 20 29 29 26 74 -6 99 l-27 21 -1337 0 -1337 0 -27 -21z"/>
<path d="M1150 2800 c-29 -29 -26 -74 6 -99 l27 -21 1337 0 1337 0 27 21 c32
25 35 70 6 99 -20 20 -33 20 -1370 20 -1337 0 -1350 0 -1370 -20z"/>
<path d="M2661 2499 c-84 -25 -162 -101 -186 -183 -23 -76 -22 -1029 1 -1105
21 -73 88 -144 160 -171 52 -19 77 -20 569 -20 489 0 517 1 567 20 68 25 132
90 158 158 19 50 20 79 20 565 0 574 0 570 -69 649 -21 24 -60 54 -87 68 l-49
25 -525 2 c-321 1 -538 -2 -559 -8z m1069 -147 c19 -9 45 -32 58 -51 l23 -35
-3 -513 -3 -513 -38 -37 -37 -38 -524 0 -524 0 -27 25 c-56 53 -55 38 -55 578
l0 499 23 34 c47 70 36 69 582 69 447 0 493 -2 525 -18z"/>
<path d="M3628 2223 c-10 -2 -119 -145 -242 -316 -124 -172 -231 -321 -240
-332 -14 -19 -21 -13 -179 143 -179 176 -195 185 -242 137 -14 -13 -25 -34
-25 -46 0 -27 382 -417 418 -425 12 -4 32 -4 45 0 24 6 36 22 404 534 166 232
176 253 127 291 -27 21 -34 23 -66 14z"/>
<path d="M1183 2433 c-49 -9 -68 -73 -34 -114 l19 -24 491 -3 c413 -2 495 0
525 12 66 27 59 106 -11 125 -37 11 -939 14 -990 4z"/>
<path d="M1157 2030 c-33 -26 -36 -71 -7 -100 19 -19 33 -20 528 -20 l509 0
21 23 c27 29 28 57 3 88 l-19 24 -504 3 c-500 3 -505 2 -531 -18z"/>
<path d="M1152 1637 c-28 -30 -28 -68 1 -95 23 -22 24 -22 526 -22 l502 0 24
25 c30 30 31 54 4 89 l-20 26 -508 0 -508 0 -21 -23z"/>
</g>
</svg>
