<svg id="Ticket" xmlns="http://www.w3.org/2000/svg" width="40" height="40" viewBox="0 0 40 40">
  <g id="Path_57856" data-name="Path 57856" fill="#3e3832">
    <path d="M4,0H36a4,4,0,0,1,4,4V36a4,4,0,0,1-4,4H4a4,4,0,0,1-4-4V4A4,4,0,0,1,4,0Z" stroke="none"/>
    <path d="M 4 1 C 2.345790863037109 1 1 2.345790863037109 1 4 L 1 36 C 1 37.65420913696289 2.345790863037109 39 4 39 L 36 39 C 37.65420913696289 39 39 37.65420913696289 39 36 L 39 4 C 39 2.345790863037109 37.65420913696289 1 36 1 L 4 1 M 4 0 L 36 0 C 38.20914077758789 0 40 1.790859222412109 40 4 L 40 36 C 40 38.20914077758789 38.20914077758789 40 36 40 L 4 40 C 1.790859222412109 40 0 38.20914077758789 0 36 L 0 4 C 0 1.790859222412109 1.790859222412109 0 4 0 Z" stroke="none" fill="rgba(255,255,255,0.19)"/>
  </g>
  <g id="tickets" transform="translate(6.848 7.38)">
    <path id="Path_224" data-name="Path 224" d="M81.147,33.27a2.284,2.284,0,1,1-3.231-3.231L75.877,28,64,39.877H79.532l4.111-4.111Z" transform="translate(-60.345 -28)" fill="#ffd884"/>
    <path id="Path_225" data-name="Path 225" d="M64,168.111H79.532L83.643,164l-16.9,1.37Z" transform="translate(-60.345 -156.234)" fill="#ffbf41"/>
    <path id="Path_226" data-name="Path 226" d="M120,114.852,126.852,108l5.025,5.025-1.827,1.827Z" transform="translate(-113.148 -103.432)" fill="#ec7422"/>
    <path id="Path_227" data-name="Path 227" d="M144,137.482,149.451,132l3.685,3.685-1.767,1.8Z" transform="translate(-135.777 -126.061)" fill="#f6f6e7"/>
    <path id="Path_228" data-name="Path 228" d="M24.212,233.939a2.284,2.284,0,0,1,2.284-2.284V228H0v3.655a2.284,2.284,0,0,1,2.284,2.284A2.284,2.284,0,0,1,0,236.223v3.655H26.5v-3.655A2.284,2.284,0,0,1,24.212,233.939Z" transform="translate(0 -216.579)" fill="#ffd884"/>
    <path id="Path_229" data-name="Path 229" d="M0,239.877H26.5v-3.655a2.284,2.284,0,1,1,0-4.568V228Z" transform="translate(0 -216.579)" fill="#ffbf41"/>
    <g id="Group_1519" data-name="Group 1519" transform="translate(4.111 11.421)">
      <path id="Path_230" data-name="Path 230" d="M376,252h.914v1.827H376Z" transform="translate(-358.641 -250.63)" fill="#fff"/>
      <path id="Path_231" data-name="Path 231" d="M376,300h.914v1.827H376Z" transform="translate(-358.641 -295.889)" fill="#fff"/>
      <path id="Path_232" data-name="Path 232" d="M376,348h.914v1.827H376Z" transform="translate(-358.641 -341.148)" fill="#fff"/>
      <path id="Path_233" data-name="Path 233" d="M376,396h.914v1.827H376Z" transform="translate(-358.641 -386.407)" fill="#fff"/>
      <path id="Path_234" data-name="Path 234" d="M72,228h.914v1.827H72Z" transform="translate(-72 -228)" fill="#fff"/>
      <path id="Path_235" data-name="Path 235" d="M72,276h.914v1.827H72Z" transform="translate(-72 -273.259)" fill="#fff"/>
      <path id="Path_236" data-name="Path 236" d="M72,324h.914v1.827H72Z" transform="translate(-72 -318.518)" fill="#fff"/>
      <path id="Path_237" data-name="Path 237" d="M72,372h.914v1.827H72Z" transform="translate(-72 -363.777)" fill="#fff"/>
      <path id="Path_238" data-name="Path 238" d="M72,420h.914v.914H72Z" transform="translate(-72 -409.036)" fill="#fff"/>
    </g>
    <path id="Path_239" data-name="Path 239" d="M132.791,266.852v-5.482a1.371,1.371,0,0,1-1.37-1.37H121.37a1.37,1.37,0,0,1-1.37,1.37v5.482a1.37,1.37,0,0,1,1.37,1.37h10.05A1.37,1.37,0,0,1,132.791,266.852Z" transform="translate(-113.148 -246.752)" fill="#ec7422"/>
    <path id="Path_240" data-name="Path 240" d="M146.964,281.33v-4.264A1.124,1.124,0,0,1,145.789,276h-8.615A1.124,1.124,0,0,1,136,277.066v4.264a1.124,1.124,0,0,1,1.174,1.066h8.615A1.124,1.124,0,0,1,146.964,281.33Z" transform="translate(-128.234 -261.839)" fill="#f6f6e7"/>
  </g>
</svg>
