<svg xmlns="http://www.w3.org/2000/svg" width="25" height="25" viewBox="0 0 25 25">
  <g id="Group_1753" data-name="Group 1753" transform="translate(-18 -165)">
    <g id="Group_1717" data-name="Group 1717">
      <circle id="Ellipse_50" data-name="Ellipse 50" cx="12.5" cy="12.5" r="12.5" transform="translate(18 165)" fill="#31be43"/>
    </g>
    <path id="Path_445" data-name="Path 445" d="M6816.532,6236.979a1.035,1.035,0,0,1-.776-.351l-3.385-3.837a1.035,1.035,0,0,1,1.553-1.37l2.167,2.456c.861-2.543,2.706-7.18,5.483-9.991a1.035,1.035,0,0,1,1.473,1.455c-3.514,3.557-5.5,10.8-5.515,10.872a1.036,1.036,0,0,1-.763.738A1.079,1.079,0,0,1,6816.532,6236.979Z" transform="translate(-6787.229 -6052.778)" fill="#fff"/>
  </g>
</svg>
