<svg xmlns="http://www.w3.org/2000/svg" xmlns:xlink="http://www.w3.org/1999/xlink" width="32"
    height="32" viewBox="0 0 32 32">
    <defs>
        <clipPath id="clip-path">
            <rect id="Rectangle_165" data-name="Rectangle 165" width="32" height="32"
                transform="translate(13778 2343)" fill="#cdcac8" />
        </clipPath>
    </defs>
    <g id="Mask_Group_16" data-name="Mask Group 16" transform="translate(-13778 -2343)"
        clip-path="url(#clip-path)">
        <g id="Group_1704" data-name="Group 1704" transform="translate(13782 2345.667)">
            <path id="Path_428" data-name="Path 428"
                d="M26.649,9.405l-.83-1.44a2.551,2.551,0,0,0-3.478-.94h0a2.539,2.539,0,0,1-3.478-.9,2.442,2.442,0,0,1-.342-1.22h0A2.551,2.551,0,0,0,15.97,2.278H14.3A2.539,2.539,0,0,0,11.76,4.829h0A2.551,2.551,0,0,1,9.209,7.343,2.441,2.441,0,0,1,7.989,7h0a2.551,2.551,0,0,0-3.478.94L3.62,9.405a2.551,2.551,0,0,0,.928,3.478h0a2.551,2.551,0,0,1,0,4.418h0a2.539,2.539,0,0,0-.928,3.466h0l.842,1.452a2.551,2.551,0,0,0,3.478.989h0a2.526,2.526,0,0,1,3.466.927,2.441,2.441,0,0,1,.342,1.22h0A2.551,2.551,0,0,0,14.3,27.907H15.97a2.551,2.551,0,0,0,2.551-2.539h0a2.539,2.539,0,0,1,2.551-2.551,2.6,2.6,0,0,1,1.22.342h0a2.551,2.551,0,0,0,3.478-.927h0l.879-1.465a2.539,2.539,0,0,0-.928-3.478h0a2.538,2.538,0,0,1-.927-3.478,2.5,2.5,0,0,1,.927-.928h0a2.551,2.551,0,0,0,.928-3.466h0Z"
                transform="translate(-3.279 -2.278)" fill="none" stroke="#cdcac8"
                stroke-linecap="round" stroke-linejoin="round" stroke-width="1.5"
                fill-rule="evenodd" />
            <circle id="Ellipse_48" data-name="Ellipse 48" cx="3.515" cy="3.515" r="3.515"
                transform="translate(8.347 9.3)" fill="none" stroke="#cdcac8" stroke-linecap="round"
                stroke-linejoin="round" stroke-width="1.5" />
        </g>
    </g>
</svg>
